<svg xmlns="http://www.w3.org/2000/svg" viewBox="0 0 216 306"><defs><style>.cls-1{fill:#2fcc3a;}</style></defs><title>drogaria_faz_teste</title><g id="Camada_2" data-name="Camada 2"><g id="Camada_1-2" data-name="Camada 1"><path class="cls-1" d="M121.54,126.62,97,151.22a24.68,24.68,0,1,1-35-34.8L86.7,91.71Z"/><path class="cls-1" d="M152.89,60.33a24.66,24.66,0,0,0-34.81,0L93.58,84.84l34.84,34.83,24.47-24.53a24.64,24.64,0,0,0,0-34.81ZM128.76,75.49,117.13,87a4.94,4.94,0,0,1-3.44,1.41A4.85,4.85,0,0,1,110.31,80L122,68.56a4.79,4.79,0,0,1,6.89.06A4.87,4.87,0,0,1,128.76,75.49Z"/><path class="cls-1" d="M108,0A108,108,0,0,0,0,108c0,59.65,108,198,108,198S216,167.65,216,108A108,108,0,0,0,108,0Zm51.76,102.09-27.32,27.38a4.61,4.61,0,0,1-.53.64,4.75,4.75,0,0,1-.64.53L103.92,158.1a34.43,34.43,0,0,1-48.83-48.56L82.44,82.22A4.75,4.75,0,0,1,84,80.68l27.45-27.46a34.17,34.17,0,0,1,24.16-9.94h.21a34.38,34.38,0,0,1,24,58.81Z"/></g></g></svg>